<svg width="111.000000" height="19.000000" viewBox="0 0 111 19" fill="none" xmlns="http://www.w3.org/2000/svg" xmlns:xlink="http://www.w3.org/1999/xlink">
	<desc>
			Created with Pixso.
	</desc>
	<defs/>
	<path id="Vector" d="M8.55 1.27L11.03 6.65L16.59 7.52L12.57 11.7L13.52 17.61L8.55 14.82L3.57 17.61L4.52 11.7L0.5 7.52L6.06 6.65L8.55 1.27Z" fill="#1E1D1D" fill-opacity="1.000000" fill-rule="nonzero"/>
	<path id="Vector" d="M11.03 6.65L16.59 7.52L12.57 11.7L13.52 17.61L8.55 14.82L3.57 17.61L4.52 11.7L0.5 7.52L6.06 6.65L8.55 1.27L11.03 6.65Z" stroke="#1E1D1D" stroke-opacity="1.000000" stroke-width="2.000000" stroke-linejoin="round"/>
	<path id="Vector" d="M55.22 1L57.71 6.37L63.27 7.24L59.25 11.42L60.2 17.34L55.22 14.54L50.25 17.34L51.2 11.42L47.18 7.24L52.74 6.37L55.22 1Z" fill="#1E1D1D" fill-opacity="1.000000" fill-rule="nonzero"/>
	<path id="Vector" d="M57.71 6.37L63.27 7.24L59.25 11.42L60.2 17.34L55.22 14.54L50.25 17.34L51.2 11.42L47.18 7.24L52.74 6.37L55.22 1L57.71 6.37Z" stroke="#1E1D1D" stroke-opacity="1.000000" stroke-width="2.000000" stroke-linejoin="round"/>
	<path id="Vector" d="M78.56 1L81.05 6.37L86.61 7.24L82.58 11.42L83.53 17.34L78.56 14.54L73.59 17.34L74.54 11.42L70.51 7.24L76.07 6.37L78.56 1Z" fill="#1E1D1D" fill-opacity="1.000000" fill-rule="nonzero"/>
	<path id="Vector" d="M81.05 6.37L86.61 7.24L82.58 11.42L83.53 17.34L78.56 14.54L73.59 17.34L74.54 11.42L70.51 7.24L76.07 6.37L78.56 1L81.05 6.37Z" stroke="#1E1D1D" stroke-opacity="1.000000" stroke-width="2.000000" stroke-linejoin="round"/>
	<path id="Vector" d="M101.5 1L103.98 6.37L109.54 7.24L105.52 11.42L106.47 17.34L101.5 14.54L96.52 17.34L97.47 11.42L93.45 7.24L99.01 6.37L101.5 1Z" fill="#1E1D1D" fill-opacity="1.000000" fill-rule="nonzero"/>
	<path id="Vector" d="M103.98 6.37L109.54 7.24L105.52 11.42L106.47 17.34L101.5 14.54L96.52 17.34L97.47 11.42L93.45 7.24L99.01 6.37L101.5 1L103.98 6.37Z" stroke="#1E1D1D" stroke-opacity="1.000000" stroke-width="2.000000" stroke-linejoin="round"/>
	<path id="Vector" d="M31.88 1L34.37 6.37L39.93 7.24L35.91 11.42L36.86 17.34L31.88 14.54L26.91 17.34L27.86 11.42L23.84 7.24L29.4 6.37L31.88 1Z" fill="#1E1D1D" fill-opacity="1.000000" fill-rule="nonzero"/>
	<path id="Vector" d="M34.37 6.37L39.93 7.24L35.91 11.42L36.86 17.34L31.88 14.54L26.91 17.34L27.86 11.42L23.84 7.24L29.4 6.37L31.88 1L34.37 6.37Z" stroke="#1E1D1D" stroke-opacity="1.000000" stroke-width="2.000000" stroke-linejoin="round"/>
</svg>
